<?xml version="1.0" encoding="UTF-8"?>
<svg width="512" height="512" viewBox="0 0 512 512" fill="none" xmlns="http://www.w3.org/2000/svg">
  <!-- Background circle -->
  <circle cx="256" cy="256" r="240" fill="#2F3437"/>
  
  <!-- Notion-like document shape -->
  <path d="M160 120C160 106.745 170.745 96 184 96H328C341.255 96 352 106.745 352 120V392C352 405.255 341.255 416 328 416H184C170.745 416 160 405.255 160 392V120Z" fill="white"/>
  
  <!-- Sync arrows -->
  <path d="M256 176C256 176 256 256 256 256M256 176C256 176 336 256 336 256M256 176C256 176 176 256 176 256" stroke="#2F3437" stroke-width="24" stroke-linecap="round"/>
  
  <!-- Circular arrow -->
  <path d="M256 336C256 336 336 256 336 256" stroke="#2F3437" stroke-width="24" stroke-linecap="round"/>
  
  <!-- Arrow head -->
  <path d="M336 256L296 216" stroke="#2F3437" stroke-width="24" stroke-linecap="round"/>
  <path d="M336 256L296 296" stroke="#2F3437" stroke-width="24" stroke-linecap="round"/>
</svg> 